                                                                        S      1
,,11Hjoint_80_80,11Hjoint_80_80,7Hunknown,7Hunknown,32,38,7,99,15,,1.,2,G      1
2HMM,1,0.08,15H20150316.194010,0.01,10000.,7Hunknown,7Hunknown,11,0,;   G      2
     186       1                                                00000000D      1
     186            -103       1       0                               0D      2
     514       2                                                00010000D      3
     514                       1       1                               0D      4
     510       3                                                00010000D      5
     510            -103       1       1                               0D      6
     510       4                                                00010000D      7
     510            -103       1       1                               0D      8
     510       5                                                00010000D      9
     510            -103       1       1                               0D     10
     510       6                                                00010000D     11
     510            -103       1       1                               0D     12
     510       7                                                00010000D     13
     510            -103       1       1                               0D     14
     510       8                                                00010000D     15
     510            -103       1       1                               0D     16
     510       9                                                00010000D     17
     510            -103       1       1                               0D     18
     510      10                                                00010000D     19
     510            -103       1       1                               0D     20
     508      11                                                00010000D     21
     508                       1       1                               0D     22
     508      12                                                00010000D     23
     508                       1       1                               0D     24
     508      13                                                00010000D     25
     508                       1       1                               0D     26
     508      14                                                00010000D     27
     508                       1       1                               0D     28
     508      15                                                00010000D     29
     508                       1       1                               0D     30
     508      16                                                00010000D     31
     508                       1       1                               0D     32
     508      17                                                00010000D     33
     508                       1       1                               0D     34
     508      18                                                00010000D     35
     508                       1       1                               0D     36
     508      19                                                00010000D     37
     508                       1       1                               0D     38
     508      20                                                00010000D     39
     508                       1       1                               0D     40
     508      21                                                00010000D     41
     508                       1       1                               0D     42
     508      22                                                00010000D     43
     508                       1       1                               0D     44
     126      23                                                00010000D     45
     126       0              12       0                               0D     46
     126      35                                                00010000D     47
     126       0               3       0                               0D     48
     126      38                                                00010000D     49
     126       0              12       0                               0D     50
     126      50                                                00010000D     51
     126       0              12       0                               0D     52
     126      62                                                00010000D     53
     126       0               3       0                               0D     54
     126      65                                                00010000D     55
     126       0              12       0                               0D     56
     126      77                                                00010000D     57
     126       0               7       0                               0D     58
     126      84                                                00010000D     59
     126       0               3       0                               0D     60
     126      87                                                00010000D     61
     126       0               7       0                               0D     62
     126      94                                                00010000D     63
     126       0               3       0                               0D     64
     126      97                                                00010000D     65
     126       0               3       0                               0D     66
     126     100                                                00010000D     67
     126       0               3       0                               0D     68
     126     103                                                00010000D     69
     126       0               3       0                               0D     70
     126     106                                                00010000D     71
     126       0               7       0                               0D     72
     126     113                                                00010000D     73
     126       0               3       0                               0D     74
     126     116                                                00010000D     75
     126       0               7       0                               0D     76
     126     123                                                00010000D     77
     126       0               3       0                               0D     78
     126     126                                                00010000D     79
     126       0               3       0                               0D     80
     128     129                                                00010000D     81
     128       0    -103      20       0                               0D     82
     128     149                                                00010000D     83
     128       0    -103      20       0                               0D     84
     128     169                                                00010000D     85
     128       0    -103      11       0                               0D     86
     128     180                                                00010000D     87
     128       0    -103       4       0                               0D     88
     128     184                                                00010000D     89
     128       0    -103      11       0                               0D     90
     128     195                                                00010000D     91
     128       0    -103       4       0                               0D     92
     128     199                                                00010000D     93
     128       0    -103       4       0                               0D     94
     128     203                                                00010000D     95
     128       0    -103       4       0                               0D     96
     502     207                                                00010000D     97
     502                       8       1                               0D     98
     504     215                                                00010001D     99
     504                       4       1                               0D    100
     406     219                                                00000000D    101
     406                       1      15                               0D    102
     314     220                                                00000200D    103
     314                       1       0                               0D    104
     314     221                                                00000200D    105
     314                       2       0                               0D    106
186,3,1,0,0,1,101;                                                     1P      1
514,8,5,1,7,1,9,1,11,1,13,1,15,1,17,1,19,1;                            3P      2
510,81,1,1,21;                                                         5P      3
510,83,1,1,23;                                                         7P      4
510,85,1,1,25;                                                         9P      5
510,87,1,1,27;                                                        11P      6
510,89,1,1,29;                                                        13P      7
510,91,1,1,31;                                                        15P      8
510,93,3,1,33,35,37;                                                  17P      9
510,95,3,1,39,41,43;                                                  19P     10
508,4,0,99,1,0,0,0,99,2,1,0,0,99,3,0,0,0,99,2,0,0;                    21P     11
508,4,0,99,4,0,0,0,99,5,1,0,0,99,6,0,0,0,99,5,0,0;                    23P     12
508,4,0,99,7,1,0,0,99,8,0,0,0,99,9,1,0,0,99,10,1,0;                   25P     13
508,4,0,99,11,1,0,0,99,12,0,0,0,99,13,1,0,0,99,8,1,0;                 27P     14
508,4,0,99,14,1,0,0,99,15,0,0,0,99,16,1,0,0,99,12,1,0;                29P     15
508,4,0,99,17,1,0,0,99,10,0,0,0,99,18,1,0,0,99,15,1,0;                31P     16
508,4,0,99,18,0,0,0,99,9,0,0,0,99,13,0,0,0,99,16,0,0;                 33P     17
508,1,0,99,1,1,0;                                                     35P     18
508,1,0,99,4,1,0;                                                     37P     19
508,4,0,99,7,0,0,0,99,17,0,0,0,99,14,0,0,0,99,11,0,0;                 39P     20
508,1,0,99,3,1,0;                                                     41P     21
508,1,0,99,6,1,0;                                                     43P     22
126,8,2,0,1,0,0,-3.14159265358979,-3.14159265358979,                  45P     23
-3.14159265358979,-1.5707963267949,-1.5707963267949,0.,0.,            45P     24
1.5707963267949,1.5707963267949,3.14159265358979,                     45P     25
3.14159265358979,3.14159265358979,1.,0.707106781186548,1.,            45P     26
0.707106781186548,1.,0.707106781186548,1.,0.707106781186548,1.,       45P     27
30.3888024825423,-8.16994858993037,0.,30.3888024825423,               45P     28
21.8300514100696,0.,0.388802482542314,21.8300514100696,0.,            45P     29
-29.6111975174577,21.8300514100696,0.,-29.6111975174577,              45P     30
-8.16994858993037,0.,-29.6111975174577,-38.1699485899304,0.,          45P     31
0.388802482542314,-38.1699485899304,0.,30.3888024825423,              45P     32
-38.1699485899304,0.,30.3888024825423,-8.16994858993037,0.,           45P     33
-3.14159265358979,3.14159265358979,0.,0.,0.;                          45P     34
126,1,1,0,0,1,0,0.,0.,0.666666666666667,0.666666666666667,1.,1.,      47P     35
30.3888024825423,-8.16994858993037,0.,30.3888024825423,               47P     36
-8.16994858993037,20.,0.,0.666666666666667,0.,0.,0.;                  47P     37
126,8,2,0,1,0,0,-3.14159265358979,-3.14159265358979,                  49P     38
-3.14159265358979,-1.5707963267949,-1.5707963267949,0.,0.,            49P     39
1.5707963267949,1.5707963267949,3.14159265358979,                     49P     40
3.14159265358979,3.14159265358979,1.,0.707106781186548,1.,            49P     41
0.707106781186548,1.,0.707106781186548,1.,0.707106781186548,1.,       49P     42
30.3888024825423,-8.16994858993037,20.,30.3888024825423,              49P     43
-38.1699485899304,20.,0.388802482542314,-38.1699485899304,20.,        49P     44
-29.6111975174577,-38.1699485899304,20.,-29.6111975174577,            49P     45
-8.16994858993037,20.,-29.6111975174577,21.8300514100696,20.,         49P     46
0.388802482542314,21.8300514100696,20.,30.3888024825423,              49P     47
21.8300514100696,20.,30.3888024825423,-8.16994858993037,20.,          49P     48
-3.14159265358979,3.14159265358979,0.,0.,0.;                          49P     49
126,8,2,0,1,0,0,-3.14159265358979,-3.14159265358979,                  51P     50
-3.14159265358979,-1.5707963267949,-1.5707963267949,0.,0.,            51P     51
1.5707963267949,1.5707963267949,3.14159265358979,                     51P     52
3.14159265358979,3.14159265358979,1.,0.707106781186547,1.,            51P     53
0.707106781186547,1.,0.707106781186547,1.,0.707106781186547,1.,       51P     54
-219.611197517458,-8.16994858993037,0.,-219.611197517458,             51P     55
21.8300514100696,0.,-249.611197517458,21.8300514100696,0.,            51P     56
-279.611197517458,21.8300514100696,0.,-279.611197517458,              51P     57
-8.16994858993037,0.,-279.611197517458,-38.1699485899304,0.,          51P     58
-249.611197517458,-38.1699485899304,0.,-219.611197517458,             51P     59
-38.1699485899304,0.,-219.611197517458,-8.16994858993037,0.,          51P     60
-3.14159265358979,3.14159265358979,0.,0.,0.;                          51P     61
126,1,1,0,0,1,0,0.,0.,0.666666666666667,0.666666666666667,1.,1.,      53P     62
-219.611197517458,-8.16994858993037,0.,-219.611197517458,             53P     63
-8.16994858993037,20.,0.,0.666666666666667,0.,0.,0.;                  53P     64
126,8,2,0,1,0,0,-3.14159265358979,-3.14159265358979,                  55P     65
-3.14159265358979,-1.5707963267949,-1.5707963267949,0.,0.,            55P     66
1.5707963267949,1.5707963267949,3.14159265358979,                     55P     67
3.14159265358979,3.14159265358979,1.,0.707106781186547,1.,            55P     68
0.707106781186547,1.,0.707106781186547,1.,0.707106781186547,1.,       55P     69
-219.611197517458,-8.16994858993037,20.,-219.611197517458,            55P     70
-38.1699485899304,20.,-249.611197517458,-38.1699485899304,20.,        55P     71
-279.611197517458,-38.1699485899304,20.,-279.611197517458,            55P     72
-8.16994858993037,20.,-279.611197517458,21.8300514100696,20.,         55P     73
-249.611197517458,21.8300514100696,20.,-219.611197517458,             55P     74
21.8300514100696,20.,-219.611197517458,-8.16994858993037,20.,         55P     75
-3.14159265358979,3.14159265358979,0.,0.,0.;                          55P     76
126,4,2,0,0,0,0,-3.14159265358979,-3.14159265358979,                  57P     77
-3.14159265358979,-1.5707963267949,-1.5707963267949,0.,0.,0.,1.,      57P     78
0.707106781186549,1.,0.707106781186549,1.,-249.611197517458,          57P     79
-48.1699485899304,20.,-289.611197517458,-48.1699485899304,20.,        57P     80
-289.611197517458,-8.16994858993037,20.,-289.611197517458,            57P     81
31.8300514100696,20.,-249.611197517458,31.8300514100696,20.,          57P     82
-3.14159265358979,0.,0.,0.,0.;                                        57P     83
126,1,1,0,0,1,0,0.,0.,2.,2.,1.,1.,-249.611197517458,                  59P     84
31.8300514100696,0.,-249.611197517458,31.8300514100696,20.,0.,        59P     85
2.,0.,0.,0.;                                                          59P     86
126,4,2,0,0,0,0,0.,0.,0.,1.5707963267949,1.5707963267949,             61P     87
3.14159265358979,3.14159265358979,3.14159265358979,1.,                61P     88
0.707106781186549,1.,0.707106781186549,1.,-249.611197517458,          61P     89
31.8300514100696,0.,-289.611197517458,31.8300514100696,0.,            61P     90
-289.611197517458,-8.16994858993037,0.,-289.611197517458,             61P     91
-48.1699485899304,0.,-249.611197517458,-48.1699485899304,0.,0.,       61P     92
3.14159265358979,0.,0.,0.;                                            61P     93
126,1,1,0,0,1,0,0.,0.,2.,2.,1.,1.,-249.611197517458,                  63P     94
-48.1699485899304,0.,-249.611197517458,-48.1699485899304,20.,0.,      63P     95
2.,0.,0.,0.;                                                          63P     96
126,1,1,0,0,1,0,-25.,-25.,0.,0.,1.,1.,-249.611197517458,              65P     97
31.8300514100696,20.,0.388802482542303,31.8300514100696,20.,          65P     98
-25.,0.,0.,0.,0.;                                                     65P     99
126,1,1,0,0,1,0,0.,0.,2.,2.,1.,1.,0.388802482542316,                  67P    100
31.8300514100696,0.,0.388802482542316,31.8300514100696,20.,0.,        67P    101
2.,0.,0.,0.;                                                          67P    102
126,1,1,0,0,1,0,0.,0.,25.,25.,1.,1.,0.388802482542303,                69P    103
31.8300514100696,0.,-249.611197517458,31.8300514100696,0.,0.,         69P    104
25.,0.,0.,0.;                                                         69P    105
126,4,2,0,0,0,0,-3.14159265358979,-3.14159265358979,                  71P    106
-3.14159265358979,-1.5707963267949,-1.5707963267949,0.,0.,0.,1.,      71P    107
0.707106781186548,1.,0.707106781186548,1.,0.388802482542321,          71P    108
31.8300514100696,20.,40.3888024825423,31.8300514100696,20.,           71P    109
40.3888024825423,-8.16994858993037,20.,40.3888024825423,              71P    110
-48.1699485899304,20.,0.388802482542316,-48.1699485899304,20.,        71P    111
-3.14159265358979,0.,0.,0.,0.;                                        71P    112
126,1,1,0,0,1,0,0.,0.,2.,2.,1.,1.,0.388802482542316,                  73P    113
-48.1699485899304,0.,0.388802482542316,-48.1699485899304,20.,0.,      73P    114
2.,0.,0.,0.;                                                          73P    115
126,4,2,0,0,0,0,0.,0.,0.,1.5707963267949,1.5707963267949,             75P    116
3.14159265358979,3.14159265358979,3.14159265358979,1.,                75P    117
0.707106781186548,1.,0.707106781186548,1.,0.388802482542316,          75P    118
-48.1699485899304,0.,40.3888024825423,-48.1699485899304,0.,           75P    119
40.3888024825423,-8.16994858993037,0.,40.3888024825423,               75P    120
31.8300514100696,0.,0.388802482542321,31.8300514100696,0.,0.,         75P    121
3.14159265358979,0.,0.,0.;                                            75P    122
126,1,1,0,0,1,0,-25.,-25.,0.,0.,1.,1.,0.388802482542303,              77P    123
-48.1699485899304,20.,-249.611197517458,-48.1699485899304,20.,        77P    124
-25.,0.,0.,0.,0.;                                                     77P    125
126,1,1,0,0,1,0,0.,0.,25.,25.,1.,1.,-249.611197517458,                79P    126
-48.1699485899304,0.,0.388802482542303,-48.1699485899304,0.,0.,       79P    127
25.,0.,0.,0.;                                                         79P    128
128,1,8,1,2,0,1,0,0,1,0.,0.,0.666666666666667,0.666666666666667,      81P    129
-3.14159265358979,-3.14159265358979,-3.14159265358979,                81P    130
-1.5707963267949,-1.5707963267949,0.,0.,1.5707963267949,              81P    131
1.5707963267949,3.14159265358979,3.14159265358979,                    81P    132
3.14159265358979,1.,1.,0.707106781186548,0.707106781186548,1.,        81P    133
1.,0.707106781186548,0.707106781186548,1.,1.,0.707106781186548,       81P    134
0.707106781186548,1.,1.,0.707106781186548,0.707106781186548,1.,       81P    135
1.,30.3888024825423,-8.16994858993037,0.,30.3888024825423,            81P    136
-8.16994858993037,20.,30.3888024825423,21.8300514100696,0.,           81P    137
30.3888024825423,21.8300514100696,20.,0.388802482542316,              81P    138
21.8300514100696,0.,0.388802482542316,21.8300514100696,20.,           81P    139
-29.6111975174577,21.8300514100696,0.,-29.6111975174577,              81P    140
21.8300514100696,20.,-29.6111975174577,-8.16994858993037,0.,          81P    141
-29.6111975174577,-8.16994858993037,20.,-29.6111975174577,            81P    142
-38.1699485899304,0.,-29.6111975174577,-38.1699485899304,20.,         81P    143
0.388802482542316,-38.1699485899304,0.,0.388802482542316,             81P    144
-38.1699485899304,20.,30.3888024825423,-38.1699485899304,0.,          81P    145
30.3888024825423,-38.1699485899304,20.,30.3888024825423,              81P    146
-8.16994858993037,0.,30.3888024825423,-8.16994858993037,20.,0.,       81P    147
0.666666666666667,-3.14159265358979,3.14159265358979;                 81P    148
128,1,8,1,2,0,1,0,0,1,0.,0.,0.666666666666667,0.666666666666667,      83P    149
-3.14159265358979,-3.14159265358979,-3.14159265358979,                83P    150
-1.5707963267949,-1.5707963267949,0.,0.,1.5707963267949,              83P    151
1.5707963267949,3.14159265358979,3.14159265358979,                    83P    152
3.14159265358979,1.,1.,0.707106781186548,0.707106781186548,1.,        83P    153
1.,0.707106781186548,0.707106781186548,1.,1.,0.707106781186548,       83P    154
0.707106781186548,1.,1.,0.707106781186548,0.707106781186548,1.,       83P    155
1.,-219.611197517458,-8.16994858993037,0.,-219.611197517458,          83P    156
-8.16994858993037,20.,-219.611197517458,21.8300514100696,0.,          83P    157
-219.611197517458,21.8300514100696,20.,-249.611197517458,             83P    158
21.8300514100696,0.,-249.611197517458,21.8300514100696,20.,           83P    159
-279.611197517458,21.8300514100696,0.,-279.611197517458,              83P    160
21.8300514100696,20.,-279.611197517458,-8.16994858993037,0.,          83P    161
-279.611197517458,-8.16994858993037,20.,-279.611197517458,            83P    162
-38.1699485899304,0.,-279.611197517458,-38.1699485899304,20.,         83P    163
-249.611197517458,-38.1699485899304,0.,-249.611197517458,             83P    164
-38.1699485899304,20.,-219.611197517458,-38.1699485899304,0.,         83P    165
-219.611197517458,-38.1699485899304,20.,-219.611197517458,            83P    166
-8.16994858993037,0.,-219.611197517458,-8.16994858993037,20.,0.,      83P    167
0.666666666666667,-3.14159265358979,3.14159265358979;                 83P    168
128,1,4,1,2,0,0,0,0,0,0.,0.,0.5,0.5,0.,0.,0.,1.5707963267949,         85P    169
1.5707963267949,3.14159265358979,3.14159265358979,                    85P    170
3.14159265358979,1.,1.,0.707106781186548,0.707106781186548,1.,        85P    171
1.,0.707106781186548,0.707106781186548,1.,1.,-249.611197517458,       85P    172
31.8300514100696,20.,-249.611197517458,31.8300514100696,0.,           85P    173
-289.611197517458,31.8300514100696,20.,-289.611197517458,             85P    174
31.8300514100696,0.,-289.611197517458,-8.16994858993037,20.,          85P    175
-289.611197517458,-8.16994858993037,0.,-289.611197517458,             85P    176
-48.1699485899304,20.,-289.611197517458,-48.1699485899304,0.,         85P    177
-249.611197517458,-48.1699485899304,20.,-249.611197517458,            85P    178
-48.1699485899304,0.,0.,0.5,0.,3.14159265358979;                      85P    179
128,1,1,1,1,0,0,1,0,0,0.,0.,2.,2.,0.,0.,25.,25.,1.,1.,1.,1.,          87P    180
-249.611197517458,31.8300514100696,0.,-249.611197517458,              87P    181
31.8300514100696,20.,0.388802482542303,31.8300514100696,0.,           87P    182
0.388802482542303,31.8300514100696,20.,0.,2.,0.,25.;                  87P    183
128,1,4,1,2,0,0,0,0,0,0.,0.,0.5,0.5,0.,0.,0.,1.5707963267949,         89P    184
1.5707963267949,3.14159265358979,3.14159265358979,                    89P    185
3.14159265358979,1.,1.,0.707106781186548,0.707106781186548,1.,        89P    186
1.,0.707106781186548,0.707106781186548,1.,1.,0.388802482542316,       89P    187
-48.1699485899304,20.,0.388802482542316,-48.1699485899304,0.,         89P    188
40.3888024825423,-48.1699485899304,20.,40.3888024825423,              89P    189
-48.1699485899304,0.,40.3888024825423,-8.16994858993037,20.,          89P    190
40.3888024825423,-8.16994858993037,0.,40.3888024825423,               89P    191
31.8300514100696,20.,40.3888024825423,31.8300514100696,0.,            89P    192
0.388802482542316,31.8300514100696,20.,0.388802482542316,             89P    193
31.8300514100696,0.,0.,0.5,0.,3.14159265358979;                       89P    194
128,1,1,1,1,0,0,1,0,0,-2.,-2.,0.,0.,-25.,-25.,0.,0.,1.,1.,1.,1.,      91P    195
-249.611197517458,-48.1699485899304,20.,-249.611197517458,            91P    196
-48.1699485899304,0.,0.388802482542316,-48.1699485899304,20.,         91P    197
0.388802482542303,-48.1699485899304,0.,-2.,0.,-25.,0.;                91P    198
128,1,1,1,1,0,0,1,0,0,-16.5,-16.5,16.5,16.5,-4.,-4.,4.,4.,1.,1.,      93P    199
1.,1.,40.3888024825423,-48.1699485899304,0.,-289.611197517458,        93P    200
-48.1699485899304,0.,40.3888024825423,31.8300514100696,0.,            93P    201
-289.611197517458,31.8300514100696,0.,-16.5,16.5,-4.,4.;              93P    202
128,1,1,1,1,0,0,1,0,0,-16.5,-16.5,16.5,16.5,-4.,-4.,4.,4.,1.,1.,      95P    203
1.,1.,-289.611197517458,-48.1699485899304,20.,40.3888024825423,       95P    204
-48.1699485899304,20.,-289.611197517458,31.8300514100696,20.,         95P    205
40.3888024825423,31.8300514100696,20.,-16.5,16.5,-4.,4.;              95P    206
502,12,30.3888024825423,-8.16994858993037,0.,30.3888024825423,        97P    207
-8.16994858993037,20.,-219.611197517458,-8.16994858993037,0.,         97P    208
-219.611197517458,-8.16994858993037,20.,-249.611197517458,            97P    209
-48.1699485899304,20.,-249.611197517458,31.8300514100696,20.,         97P    210
-249.611197517458,31.8300514100696,0.,-249.611197517458,              97P    211
-48.1699485899304,0.,0.388802482542316,31.8300514100696,20.,          97P    212
0.388802482542316,31.8300514100696,0.,0.388802482542316,              97P    213
-48.1699485899304,20.,0.388802482542316,-48.1699485899304,0.;         97P    214
504,18,45,97,1,97,1,47,97,1,97,2,49,97,2,97,2,51,97,3,97,3,53,        99P    215
97,3,97,4,55,97,4,97,4,57,97,5,97,6,59,97,7,97,6,61,97,7,97,8,        99P    216
63,97,8,97,5,65,97,6,97,9,67,97,10,97,9,69,97,10,97,7,71,97,9,        99P    217
97,11,73,97,12,97,11,75,97,12,97,10,77,97,11,97,5,79,97,8,97,12;      99P    218
406,1,5HBody1;                                                       101P    219
314,0.,0.,0.,14HGlossy - Black;                                      103P    220
314,74.9019607843137,74.9019607843137,74.9019607843137,7HDefault     105P    221
;                                                                    105P    222
S      1G      2D    106P    222                                        T      1
